<mxfile host="" modified="2020-06-25T14:00:57.556Z" agent="5.0 (Windows NT 10.0; Win64; x64) AppleWebKit/537.36 (KHTML, like Gecko) Code/1.46.1 Chrome/78.0.3904.130 Electron/7.3.1 Safari/537.36" etag="wFAaDRQo5XEiOU5ohz9g" version="13.1.3">
    <diagram id="6hGFLwfOUW9BJ-s0fimq" name="Page-1">
        <mxGraphModel dx="1619" dy="932" grid="1" gridSize="10" guides="1" tooltips="1" connect="1" arrows="1" fold="1" page="1" pageScale="1" pageWidth="1000" pageHeight="800" background="none" math="0" shadow="0">
            <root>
                <mxCell id="0"/>
                <mxCell id="1" parent="0"/>
                <mxCell id="9" value=":Main" style="shape=umlLifeline;perimeter=lifelinePerimeter;whiteSpace=wrap;html=1;container=1;collapsible=0;recursiveResize=0;outlineConnect=0;" parent="1" vertex="1">
                    <mxGeometry x="40" y="10" width="100" height="770" as="geometry"/>
                </mxCell>
                <mxCell id="10" value="" style="html=1;points=[];perimeter=orthogonalPerimeter;" parent="9" vertex="1">
                    <mxGeometry x="45" y="60" width="10" height="680" as="geometry"/>
                </mxCell>
                <mxCell id="11" value="mainMenu:MainMenu" style="shape=umlLifeline;perimeter=lifelinePerimeter;whiteSpace=wrap;html=1;container=1;collapsible=0;recursiveResize=0;outlineConnect=0;" parent="1" vertex="1">
                    <mxGeometry x="200" y="60" width="130" height="660" as="geometry"/>
                </mxCell>
                <mxCell id="21" value="" style="html=1;points=[];perimeter=orthogonalPerimeter;" vertex="1" parent="1">
                    <mxGeometry x="260" y="120" width="10" height="580" as="geometry"/>
                </mxCell>
                <mxCell id="22" value="&lt;b&gt;create&lt;/b&gt;" style="html=1;verticalAlign=bottom;endArrow=block;exitX=0.952;exitY=0.013;exitDx=0;exitDy=0;exitPerimeter=0;" edge="1" parent="1" source="10">
                    <mxGeometry width="80" relative="1" as="geometry">
                        <mxPoint x="100" y="80" as="sourcePoint"/>
                        <mxPoint x="200" y="80" as="targetPoint"/>
                    </mxGeometry>
                </mxCell>
                <mxCell id="23" value="&lt;b&gt;start()&lt;/b&gt;" style="html=1;verticalAlign=bottom;endArrow=block;entryX=-0.024;entryY=0.01;entryDx=0;entryDy=0;entryPerimeter=0;" edge="1" parent="1" source="10" target="21">
                    <mxGeometry width="80" relative="1" as="geometry">
                        <mxPoint x="110" y="138" as="sourcePoint"/>
                        <mxPoint x="258" y="138" as="targetPoint"/>
                    </mxGeometry>
                </mxCell>
                <mxCell id="31" value="&lt;b&gt;printContents()&lt;/b&gt;" style="edgeStyle=orthogonalEdgeStyle;html=1;align=left;spacingLeft=2;endArrow=block;rounded=0;entryX=1;entryY=0;" edge="1" parent="1">
                    <mxGeometry relative="1" as="geometry">
                        <mxPoint x="270" y="150" as="sourcePoint"/>
                        <Array as="points">
                            <mxPoint x="295" y="150"/>
                        </Array>
                        <mxPoint x="275" y="170" as="targetPoint"/>
                    </mxGeometry>
                </mxCell>
                <mxCell id="42" value="alt" style="shape=umlFrame;whiteSpace=wrap;html=1;" vertex="1" parent="1">
                    <mxGeometry x="190" y="240" width="750" height="450" as="geometry"/>
                </mxCell>
                <mxCell id="43" value="&lt;b&gt;getChoice()&lt;/b&gt;" style="html=1;verticalAlign=bottom;endArrow=block;" edge="1" parent="1">
                    <mxGeometry width="80" relative="1" as="geometry">
                        <mxPoint x="270" y="200" as="sourcePoint"/>
                        <mxPoint x="350" y="200" as="targetPoint"/>
                    </mxGeometry>
                </mxCell>
                <mxCell id="44" value="activeScreen:Scores" style="shape=umlLifeline;perimeter=lifelinePerimeter;whiteSpace=wrap;html=1;container=1;collapsible=0;recursiveResize=0;outlineConnect=0;" vertex="1" parent="1">
                    <mxGeometry x="350" y="190" width="120" height="530" as="geometry"/>
                </mxCell>
                <mxCell id="58" value="" style="html=1;points=[];perimeter=orthogonalPerimeter;" vertex="1" parent="44">
                    <mxGeometry x="55" y="55" width="10" height="425" as="geometry"/>
                </mxCell>
                <mxCell id="57" value="return" style="html=1;verticalAlign=bottom;endArrow=open;dashed=1;endSize=8;" edge="1" parent="1">
                    <mxGeometry relative="1" as="geometry">
                        <mxPoint x="350" y="220" as="sourcePoint"/>
                        <mxPoint x="270" y="220" as="targetPoint"/>
                    </mxGeometry>
                </mxCell>
                <mxCell id="59" value="&lt;b&gt;init()&lt;/b&gt;" style="html=1;verticalAlign=bottom;endArrow=block;" edge="1" parent="1" target="58">
                    <mxGeometry width="80" relative="1" as="geometry">
                        <mxPoint x="270" y="260" as="sourcePoint"/>
                        <mxPoint x="350" y="260" as="targetPoint"/>
                    </mxGeometry>
                </mxCell>
                <mxCell id="61" value="&lt;b&gt;printContents()&lt;/b&gt;" style="edgeStyle=orthogonalEdgeStyle;html=1;align=left;spacingLeft=2;endArrow=block;rounded=0;entryX=1;entryY=0;" edge="1" parent="1">
                    <mxGeometry relative="1" as="geometry">
                        <mxPoint x="415" y="274.98" as="sourcePoint"/>
                        <Array as="points">
                            <mxPoint x="440" y="274.98"/>
                        </Array>
                        <mxPoint x="419.9999999999998" y="294.98000000000013" as="targetPoint"/>
                    </mxGeometry>
                </mxCell>
                <mxCell id="63" value="loop" style="shape=umlFrame;whiteSpace=wrap;html=1;" vertex="1" parent="1">
                    <mxGeometry x="170" y="140" width="780" height="580" as="geometry"/>
                </mxCell>
                <mxCell id="64" value="&lt;b&gt;readScores()&lt;/b&gt;" style="html=1;verticalAlign=bottom;endArrow=block;entryX=-0.009;entryY=0.039;entryDx=0;entryDy=0;entryPerimeter=0;" edge="1" parent="1">
                    <mxGeometry width="80" relative="1" as="geometry">
                        <mxPoint x="415" y="314.69999999999993" as="sourcePoint"/>
                        <mxPoint x="544.0999999999999" y="314.69999999999993" as="targetPoint"/>
                    </mxGeometry>
                </mxCell>
                <mxCell id="65" value="saveFile:File" style="shape=umlLifeline;perimeter=lifelinePerimeter;whiteSpace=wrap;html=1;container=1;collapsible=0;recursiveResize=0;outlineConnect=0;" vertex="1" parent="1">
                    <mxGeometry x="545" y="298" width="100" height="112" as="geometry"/>
                </mxCell>
                <mxCell id="66" value="" style="html=1;points=[];perimeter=orthogonalPerimeter;" vertex="1" parent="65">
                    <mxGeometry x="45" y="50" width="10" height="50" as="geometry"/>
                </mxCell>
                <mxCell id="71" value="&lt;b&gt;exists()&lt;/b&gt;" style="edgeStyle=orthogonalEdgeStyle;html=1;align=left;spacingLeft=2;endArrow=block;rounded=0;entryX=1;entryY=0;" edge="1" parent="1">
                    <mxGeometry relative="1" as="geometry">
                        <mxPoint x="600" y="368" as="sourcePoint"/>
                        <Array as="points">
                            <mxPoint x="625" y="368"/>
                        </Array>
                        <mxPoint x="604.9999999999998" y="388" as="targetPoint"/>
                    </mxGeometry>
                </mxCell>
                <mxCell id="72" value="&lt;b&gt;create&lt;/b&gt;" style="html=1;verticalAlign=bottom;endArrow=block;entryX=0.69;entryY=0.2;entryDx=0;entryDy=0;entryPerimeter=0;" edge="1" parent="1">
                    <mxGeometry width="80" relative="1" as="geometry">
                        <mxPoint x="416" y="441.5" as="sourcePoint"/>
                        <mxPoint x="536.0999999999999" y="441.5000000000001" as="targetPoint"/>
                    </mxGeometry>
                </mxCell>
                <mxCell id="73" value="fileReader:FileReader" style="shape=umlLifeline;perimeter=lifelinePerimeter;whiteSpace=wrap;html=1;container=1;collapsible=0;recursiveResize=0;outlineConnect=0;" vertex="1" parent="1">
                    <mxGeometry x="536" y="421.5" width="130" height="227" as="geometry"/>
                </mxCell>
                <mxCell id="74" value="&lt;b&gt;create&lt;/b&gt;" style="html=1;verticalAlign=bottom;endArrow=block;entryX=0;entryY=0.033;entryDx=0;entryDy=0;entryPerimeter=0;" edge="1" parent="1">
                    <mxGeometry width="80" relative="1" as="geometry">
                        <mxPoint x="416" y="491.5" as="sourcePoint"/>
                        <mxPoint x="686.0000000000002" y="491.4000000000001" as="targetPoint"/>
                    </mxGeometry>
                </mxCell>
                <mxCell id="75" value="lineNumberReader:LineNumberReader" style="shape=umlLifeline;perimeter=lifelinePerimeter;whiteSpace=wrap;html=1;container=1;collapsible=0;recursiveResize=0;outlineConnect=0;" vertex="1" parent="1">
                    <mxGeometry x="686" y="473.5" width="220" height="175" as="geometry"/>
                </mxCell>
                <mxCell id="77" value="" style="html=1;points=[];perimeter=orthogonalPerimeter;" vertex="1" parent="75">
                    <mxGeometry x="105" y="50" width="10" height="110" as="geometry"/>
                </mxCell>
                <mxCell id="76" value="&lt;b&gt;ready()&lt;/b&gt;" style="edgeStyle=orthogonalEdgeStyle;html=1;align=left;spacingLeft=2;endArrow=block;rounded=0;entryX=1;entryY=0;" edge="1" parent="1">
                    <mxGeometry relative="1" as="geometry">
                        <mxPoint x="802.0000000000002" y="542.5" as="sourcePoint"/>
                        <Array as="points">
                            <mxPoint x="827" y="542.5"/>
                        </Array>
                        <mxPoint x="806.9999999999998" y="562.5" as="targetPoint"/>
                    </mxGeometry>
                </mxCell>
                <mxCell id="79" value="loop" style="shape=umlFrame;whiteSpace=wrap;html=1;" vertex="1" parent="1">
                    <mxGeometry x="726" y="533.5" width="190" height="80" as="geometry"/>
                </mxCell>
                <mxCell id="82" value="&lt;b&gt;readLine()&lt;/b&gt;" style="edgeStyle=orthogonalEdgeStyle;html=1;align=left;spacingLeft=2;endArrow=block;rounded=0;entryX=1;entryY=0;" edge="1" parent="1">
                    <mxGeometry relative="1" as="geometry">
                        <mxPoint x="802" y="578.5" as="sourcePoint"/>
                        <Array as="points">
                            <mxPoint x="827" y="578.5"/>
                        </Array>
                        <mxPoint x="807" y="598.5" as="targetPoint"/>
                    </mxGeometry>
                </mxCell>
                <mxCell id="83" value="alt" style="shape=umlFrame;whiteSpace=wrap;html=1;" vertex="1" parent="1">
                    <mxGeometry x="340" y="410" width="590" height="240" as="geometry"/>
                </mxCell>
            </root>
        </mxGraphModel>
    </diagram>
</mxfile>